<mxfile host="Electron" modified="2024-05-23T17:16:02.570Z" agent="Mozilla/5.0 (X11; Linux x86_64) AppleWebKit/537.36 (KHTML, like Gecko) draw.io/24.4.0 Chrome/120.0.6099.109 Electron/28.1.0 Safari/537.36" etag="xJ2y1Il10KOWYsVPpDFZ" version="24.4.0" type="device">
  <diagram name="Page-1" id="0vbAru05EYEyx-hmrW0Z">
    <mxGraphModel dx="2031" dy="1500" grid="0" gridSize="10" guides="1" tooltips="1" connect="1" arrows="1" fold="1" page="1" pageScale="1" pageWidth="3300" pageHeight="4681" math="0" shadow="0">
      <root>
        <mxCell id="0" />
        <mxCell id="1" parent="0" />
        <mxCell id="k6QNyNbbIhyl7HvzuwOS-32" value="" style="group" vertex="1" connectable="0" parent="1">
          <mxGeometry x="519" y="2585" width="1230" height="751" as="geometry" />
        </mxCell>
        <mxCell id="k6QNyNbbIhyl7HvzuwOS-1" value="" style="rounded=0;whiteSpace=wrap;html=1;movable=1;resizable=1;rotatable=1;deletable=1;editable=1;locked=0;connectable=1;" vertex="1" parent="k6QNyNbbIhyl7HvzuwOS-32">
          <mxGeometry x="273.5" y="576" width="688" height="60" as="geometry" />
        </mxCell>
        <mxCell id="k6QNyNbbIhyl7HvzuwOS-2" value="" style="rounded=0;whiteSpace=wrap;html=1;movable=1;resizable=1;rotatable=1;deletable=1;editable=1;locked=0;connectable=1;" vertex="1" parent="k6QNyNbbIhyl7HvzuwOS-32">
          <mxGeometry x="569.5" y="636" width="89" height="55" as="geometry" />
        </mxCell>
        <mxCell id="k6QNyNbbIhyl7HvzuwOS-3" value="" style="rounded=0;whiteSpace=wrap;html=1;movable=1;resizable=1;rotatable=1;deletable=1;editable=1;locked=0;connectable=1;" vertex="1" parent="k6QNyNbbIhyl7HvzuwOS-32">
          <mxGeometry y="691" width="1230" height="60" as="geometry" />
        </mxCell>
        <mxCell id="k6QNyNbbIhyl7HvzuwOS-4" value="" style="rounded=0;whiteSpace=wrap;html=1;movable=1;resizable=1;rotatable=1;deletable=1;editable=1;locked=0;connectable=1;" vertex="1" parent="k6QNyNbbIhyl7HvzuwOS-32">
          <mxGeometry x="957.5" y="122" width="60" height="514" as="geometry" />
        </mxCell>
        <mxCell id="k6QNyNbbIhyl7HvzuwOS-5" value="" style="rounded=0;whiteSpace=wrap;html=1;movable=1;resizable=1;rotatable=1;deletable=1;editable=1;locked=0;connectable=1;" vertex="1" parent="k6QNyNbbIhyl7HvzuwOS-32">
          <mxGeometry x="213.5" y="122" width="60" height="514" as="geometry" />
        </mxCell>
        <mxCell id="k6QNyNbbIhyl7HvzuwOS-6" value="" style="rounded=0;whiteSpace=wrap;html=1;movable=1;resizable=1;rotatable=1;deletable=1;editable=1;locked=0;connectable=1;" vertex="1" parent="k6QNyNbbIhyl7HvzuwOS-32">
          <mxGeometry x="273.5" y="301" width="33" height="22" as="geometry" />
        </mxCell>
        <mxCell id="k6QNyNbbIhyl7HvzuwOS-7" value="" style="rounded=0;whiteSpace=wrap;html=1;movable=1;resizable=1;rotatable=1;deletable=1;editable=1;locked=0;connectable=1;" vertex="1" parent="k6QNyNbbIhyl7HvzuwOS-32">
          <mxGeometry x="924.5" y="301" width="33" height="22" as="geometry" />
        </mxCell>
        <mxCell id="k6QNyNbbIhyl7HvzuwOS-11" value="" style="rounded=0;whiteSpace=wrap;html=1;movable=1;resizable=1;rotatable=1;deletable=1;editable=1;locked=0;connectable=1;" vertex="1" parent="k6QNyNbbIhyl7HvzuwOS-32">
          <mxGeometry x="306.5" width="60" height="522.75" as="geometry" />
        </mxCell>
        <mxCell id="k6QNyNbbIhyl7HvzuwOS-12" value="" style="rounded=0;whiteSpace=wrap;html=1;movable=1;resizable=1;rotatable=1;deletable=1;editable=1;locked=0;connectable=1;" vertex="1" parent="k6QNyNbbIhyl7HvzuwOS-32">
          <mxGeometry x="864.5" width="60" height="521" as="geometry" />
        </mxCell>
        <mxCell id="k6QNyNbbIhyl7HvzuwOS-13" value="" style="rounded=0;whiteSpace=wrap;html=1;movable=1;resizable=1;rotatable=1;deletable=1;editable=1;locked=0;connectable=1;" vertex="1" parent="k6QNyNbbIhyl7HvzuwOS-32">
          <mxGeometry x="367.5" width="497" height="60" as="geometry" />
        </mxCell>
        <mxCell id="k6QNyNbbIhyl7HvzuwOS-14" value="" style="rounded=0;whiteSpace=wrap;html=1;movable=1;resizable=1;rotatable=1;deletable=1;editable=1;locked=0;connectable=1;" vertex="1" parent="k6QNyNbbIhyl7HvzuwOS-32">
          <mxGeometry x="366.5" y="462.75" width="496.5" height="60" as="geometry" />
        </mxCell>
        <mxCell id="k6QNyNbbIhyl7HvzuwOS-16" value="" style="endArrow=none;html=1;rounded=0;strokeWidth=3;entryX=0.545;entryY=0.545;entryDx=0;entryDy=0;entryPerimeter=0;" edge="1" parent="k6QNyNbbIhyl7HvzuwOS-32" target="k6QNyNbbIhyl7HvzuwOS-28">
          <mxGeometry width="50" height="50" relative="1" as="geometry">
            <mxPoint x="896" y="491" as="sourcePoint" />
            <mxPoint x="893" y="133" as="targetPoint" />
          </mxGeometry>
        </mxCell>
        <mxCell id="k6QNyNbbIhyl7HvzuwOS-17" value="" style="endArrow=none;html=1;rounded=0;strokeWidth=3;entryX=0.5;entryY=0.602;entryDx=0;entryDy=0;entryPerimeter=0;" edge="1" parent="k6QNyNbbIhyl7HvzuwOS-32" source="k6QNyNbbIhyl7HvzuwOS-19" target="k6QNyNbbIhyl7HvzuwOS-22">
          <mxGeometry width="50" height="50" relative="1" as="geometry">
            <mxPoint x="339.5" y="78" as="sourcePoint" />
            <mxPoint x="336.5" y="134" as="targetPoint" />
          </mxGeometry>
        </mxCell>
        <mxCell id="k6QNyNbbIhyl7HvzuwOS-18" value="" style="endArrow=none;html=1;rounded=0;strokeWidth=3;" edge="1" parent="k6QNyNbbIhyl7HvzuwOS-32" source="k6QNyNbbIhyl7HvzuwOS-22">
          <mxGeometry width="50" height="50" relative="1" as="geometry">
            <mxPoint x="893" y="492.03999999999996" as="sourcePoint" />
            <mxPoint x="337" y="492.03999999999996" as="targetPoint" />
          </mxGeometry>
        </mxCell>
        <mxCell id="k6QNyNbbIhyl7HvzuwOS-20" value="" style="endArrow=none;html=1;rounded=0;strokeWidth=3;" edge="1" parent="k6QNyNbbIhyl7HvzuwOS-32" source="k6QNyNbbIhyl7HvzuwOS-19">
          <mxGeometry width="50" height="50" relative="1" as="geometry">
            <mxPoint x="879.0000208989941" y="32.00144245438787" as="sourcePoint" />
            <mxPoint x="348.99997996927414" y="33.709007671814106" as="targetPoint" />
          </mxGeometry>
        </mxCell>
        <mxCell id="k6QNyNbbIhyl7HvzuwOS-25" value="" style="endArrow=none;html=1;rounded=0;strokeWidth=3;" edge="1" parent="k6QNyNbbIhyl7HvzuwOS-32" source="k6QNyNbbIhyl7HvzuwOS-26" target="k6QNyNbbIhyl7HvzuwOS-22">
          <mxGeometry width="50" height="50" relative="1" as="geometry">
            <mxPoint x="893" y="492.03999999999996" as="sourcePoint" />
            <mxPoint x="337" y="492.03999999999996" as="targetPoint" />
          </mxGeometry>
        </mxCell>
        <mxCell id="k6QNyNbbIhyl7HvzuwOS-22" value="" style="ellipse;whiteSpace=wrap;html=1;aspect=fixed;fillColor=#080808;" vertex="1" parent="k6QNyNbbIhyl7HvzuwOS-32">
          <mxGeometry x="328.5" y="481.75" width="22" height="22" as="geometry" />
        </mxCell>
        <mxCell id="k6QNyNbbIhyl7HvzuwOS-27" value="" style="endArrow=none;html=1;rounded=0;strokeWidth=3;" edge="1" parent="k6QNyNbbIhyl7HvzuwOS-32" target="k6QNyNbbIhyl7HvzuwOS-26">
          <mxGeometry width="50" height="50" relative="1" as="geometry">
            <mxPoint x="893" y="492.03999999999996" as="sourcePoint" />
            <mxPoint x="347.5" y="488" as="targetPoint" />
          </mxGeometry>
        </mxCell>
        <mxCell id="k6QNyNbbIhyl7HvzuwOS-26" value="" style="ellipse;whiteSpace=wrap;html=1;aspect=fixed;fillColor=#000000;" vertex="1" parent="k6QNyNbbIhyl7HvzuwOS-32">
          <mxGeometry x="883.5" y="481.75" width="22" height="22" as="geometry" />
        </mxCell>
        <mxCell id="k6QNyNbbIhyl7HvzuwOS-28" value="" style="ellipse;whiteSpace=wrap;html=1;aspect=fixed;gradientColor=none;fillColor=#000000;fillStyle=solid;" vertex="1" parent="k6QNyNbbIhyl7HvzuwOS-32">
          <mxGeometry x="883.5" y="23" width="22" height="22" as="geometry" />
        </mxCell>
        <mxCell id="k6QNyNbbIhyl7HvzuwOS-30" value="" style="endArrow=none;html=1;rounded=0;strokeWidth=3;" edge="1" parent="k6QNyNbbIhyl7HvzuwOS-32" source="k6QNyNbbIhyl7HvzuwOS-28" target="k6QNyNbbIhyl7HvzuwOS-19">
          <mxGeometry width="50" height="50" relative="1" as="geometry">
            <mxPoint x="879.0000208989941" y="32.00144245438787" as="sourcePoint" />
            <mxPoint x="348.99997996927414" y="33.709007671814106" as="targetPoint" />
          </mxGeometry>
        </mxCell>
        <mxCell id="k6QNyNbbIhyl7HvzuwOS-19" value="" style="ellipse;whiteSpace=wrap;html=1;aspect=fixed;fillColor=#000000;" vertex="1" parent="k6QNyNbbIhyl7HvzuwOS-32">
          <mxGeometry x="325.5" y="23" width="22" height="22" as="geometry" />
        </mxCell>
      </root>
    </mxGraphModel>
  </diagram>
</mxfile>
